<svg width="85" height="13" viewBox="0 0 85 13" fill="none" xmlns="http://www.w3.org/2000/svg">
<path d="M0.12 0.783999H2.824V7.088L8.68 0.783999H12.248L6.984 6.448L12.712 11.984H8.968L5.224 8.352L1.832 11.984H0.12V0.783999ZM14.9638 0.783999H17.6678V9.504L26.4998 9.488V11.968L14.9638 11.984V0.783999ZM28.4366 7.712C28.394 7.52 28.3513 7.296 28.3086 7.04C28.2766 6.784 28.2606 6.56533 28.2606 6.384C28.2606 6.18133 28.282 5.94667 28.3246 5.68C28.3673 5.40267 28.4153 5.16267 28.4686 4.96C28.6286 4.32 28.8953 3.73333 29.2686 3.2C29.642 2.66667 30.106 2.208 30.6606 1.824C31.226 1.42933 31.8766 1.12533 32.6126 0.912C33.3593 0.687999 34.1806 0.575999 35.0766 0.575999C35.9833 0.575999 36.8046 0.687999 37.5406 0.912C38.2873 1.12533 38.938 1.42933 39.4926 1.824C40.058 2.208 40.5273 2.66667 40.9006 3.2C41.274 3.73333 41.5406 4.32 41.7006 4.96C41.754 5.16267 41.802 5.40267 41.8446 5.68C41.8873 5.94667 41.9086 6.18133 41.9086 6.384C41.9086 6.56533 41.8873 6.784 41.8446 7.04C41.8126 7.296 41.7753 7.52 41.7326 7.712C41.5726 8.36267 41.3113 8.96533 40.9486 9.52C40.586 10.064 40.122 10.5333 39.5566 10.928C38.9913 11.3227 38.3353 11.632 37.5886 11.856C36.842 12.08 36.0046 12.192 35.0766 12.192C34.1593 12.192 33.322 12.08 32.5646 11.856C31.818 11.632 31.162 11.3227 30.5966 10.928C30.042 10.5333 29.5833 10.064 29.2206 9.52C28.858 8.96533 28.5966 8.36267 28.4366 7.712ZM31.0606 6.384C31.0606 6.84267 31.1513 7.27467 31.3326 7.68C31.5246 8.07467 31.7966 8.42133 32.1486 8.72C32.5006 9.01867 32.922 9.25867 33.4126 9.44C33.914 9.61067 34.4686 9.696 35.0766 9.696C35.6953 9.696 36.25 9.61067 36.7406 9.44C37.242 9.25867 37.6633 9.01867 38.0046 8.72C38.3566 8.42133 38.6233 8.07467 38.8046 7.68C38.9966 7.27467 39.0926 6.84267 39.0926 6.384C39.0926 5.936 38.9966 5.50933 38.8046 5.104C38.6126 4.69867 38.3406 4.34667 37.9886 4.048C37.6473 3.73867 37.226 3.49867 36.7246 3.328C36.234 3.14667 35.6846 3.056 35.0766 3.056C34.4686 3.056 33.914 3.14667 33.4126 3.328C32.922 3.49867 32.5006 3.73867 32.1486 4.048C31.8073 4.34667 31.5406 4.69867 31.3486 5.104C31.1566 5.50933 31.0606 5.936 31.0606 6.384ZM46.4549 8.368L46.6789 8.56C46.8602 8.73067 47.0949 8.89067 47.3829 9.04C47.6815 9.17867 48.0015 9.30133 48.3429 9.408C48.6842 9.504 49.0309 9.57867 49.3829 9.632C49.7455 9.68533 50.0762 9.712 50.3749 9.712C50.7162 9.712 51.0842 9.70133 51.4789 9.68C51.8735 9.65867 52.2469 9.60533 52.5989 9.52C52.9402 9.43467 53.2069 9.31733 53.3989 9.168C53.6015 9.008 53.7029 8.78933 53.7029 8.512C53.7029 8.33067 53.6175 8.18667 53.4469 8.08C53.2762 7.97333 52.9882 7.888 52.5829 7.824C52.1669 7.76 51.6922 7.72267 51.1589 7.712C50.6362 7.69067 50.0922 7.65867 49.5269 7.616C48.9722 7.56267 48.4122 7.48267 47.8469 7.376C47.2815 7.26933 46.7749 7.09333 46.3269 6.848C45.8789 6.60267 45.5109 6.272 45.2229 5.856C44.9455 5.44 44.8069 4.896 44.8069 4.224C44.8069 3.57333 44.9615 3.01867 45.2709 2.56C45.5909 2.10133 46.0122 1.728 46.5349 1.44C47.0575 1.14133 47.6602 0.927999 48.3429 0.799999C49.0255 0.661332 49.7402 0.591999 50.4869 0.591999C51.0095 0.591999 51.5482 0.650666 52.1029 0.768C52.6575 0.874666 53.1962 1.024 53.7189 1.216C54.2522 1.408 54.7535 1.62667 55.2229 1.872C55.6922 2.11733 56.1029 2.37333 56.4549 2.64L56.6789 2.832L54.3909 4.432L54.1829 4.208C54.0015 4.02667 53.7615 3.86667 53.4629 3.728C53.1749 3.58933 52.8602 3.472 52.5189 3.376C52.1882 3.28 51.8415 3.21067 51.4789 3.168C51.1269 3.11467 50.7962 3.088 50.4869 3.088C50.1455 3.088 49.8042 3.104 49.4629 3.136C49.1215 3.15733 48.8122 3.21067 48.5349 3.296C48.2789 3.37067 48.0709 3.488 47.9109 3.648C47.7615 3.79733 47.6869 4.01067 47.6869 4.288C47.6869 4.50133 47.7775 4.672 47.9589 4.8C48.1402 4.91733 48.4282 5.01333 48.8229 5.088C49.2389 5.17333 49.7082 5.22667 50.2309 5.248C50.7642 5.26933 51.3082 5.30133 51.8629 5.344C52.4175 5.38667 52.9722 5.46133 53.5269 5.568C54.0922 5.664 54.5989 5.82933 55.0469 6.064C55.5055 6.29867 55.8735 6.61867 56.1509 7.024C56.4389 7.41867 56.5829 7.936 56.5829 8.576C56.5829 9.28 56.4015 9.86667 56.0389 10.336C55.6762 10.8053 55.2015 11.1787 54.6149 11.456C54.0282 11.7333 53.3615 11.9253 52.6149 12.032C51.8789 12.1493 51.1322 12.208 50.3749 12.208C49.8629 12.208 49.3242 12.1493 48.7589 12.032C48.2042 11.9253 47.6602 11.776 47.1269 11.584C46.6042 11.392 46.1082 11.1733 45.6389 10.928C45.1695 10.6827 44.7589 10.4267 44.4069 10.16L44.1669 10L46.4549 8.368ZM58.9325 0.783999H69.7645V3.28H61.6365V5.136H69.0925V7.632H61.6365V9.504H69.7645V11.984H58.9325V0.783999ZM72.0263 0.783999H79.4503C80.9649 0.783999 82.1169 1.104 82.9063 1.744C83.6956 2.384 84.0903 3.264 84.0903 4.384C84.0903 4.87467 84.0263 5.33333 83.8983 5.76C83.7703 6.18667 83.5569 6.56533 83.2583 6.896C82.9703 7.216 82.5916 7.47733 82.1223 7.68C81.6636 7.88267 81.0983 8.01067 80.4263 8.064L84.8583 11.984H80.9703L76.5703 8.064H74.7303V11.984H72.0263V0.783999ZM79.8023 5.584C80.3996 5.584 80.7996 5.49867 81.0023 5.328C81.2156 5.14667 81.3223 4.82667 81.3223 4.368C81.3223 3.984 81.1569 3.70667 80.8263 3.536C80.4956 3.36533 80.0636 3.28 79.5303 3.28H74.7303V5.584H79.8023Z" fill="black"/>
</svg>
