<svg width="132" height="40" viewBox="0 0 132 40" fill="none" xmlns="http://www.w3.org/2000/svg">
<path d="M46.12 12.784H48.824V19.088L54.68 12.784H58.248L52.984 18.448L58.712 23.984H54.968L51.224 20.352L47.832 23.984H46.12V12.784ZM60.9638 12.784H63.6678V21.504L72.4998 21.488V23.968L60.9638 23.984V12.784ZM74.4366 19.712C74.394 19.52 74.3513 19.296 74.3086 19.04C74.2766 18.784 74.2606 18.5653 74.2606 18.384C74.2606 18.1813 74.282 17.9467 74.3246 17.68C74.3673 17.4027 74.4153 17.1627 74.4686 16.96C74.6286 16.32 74.8953 15.7333 75.2686 15.2C75.642 14.6667 76.106 14.208 76.6606 13.824C77.226 13.4293 77.8766 13.1253 78.6126 12.912C79.3593 12.688 80.1806 12.576 81.0766 12.576C81.9833 12.576 82.8046 12.688 83.5406 12.912C84.2873 13.1253 84.938 13.4293 85.4926 13.824C86.058 14.208 86.5273 14.6667 86.9006 15.2C87.274 15.7333 87.5406 16.32 87.7006 16.96C87.754 17.1627 87.802 17.4027 87.8446 17.68C87.8873 17.9467 87.9086 18.1813 87.9086 18.384C87.9086 18.5653 87.8873 18.784 87.8446 19.04C87.8126 19.296 87.7753 19.52 87.7326 19.712C87.5726 20.3627 87.3113 20.9653 86.9486 21.52C86.586 22.064 86.122 22.5333 85.5566 22.928C84.9913 23.3227 84.3353 23.632 83.5886 23.856C82.842 24.08 82.0046 24.192 81.0766 24.192C80.1593 24.192 79.322 24.08 78.5646 23.856C77.818 23.632 77.162 23.3227 76.5966 22.928C76.042 22.5333 75.5833 22.064 75.2206 21.52C74.858 20.9653 74.5966 20.3627 74.4366 19.712ZM77.0606 18.384C77.0606 18.8427 77.1513 19.2747 77.3326 19.68C77.5246 20.0747 77.7966 20.4213 78.1486 20.72C78.5006 21.0187 78.922 21.2587 79.4126 21.44C79.914 21.6107 80.4686 21.696 81.0766 21.696C81.6953 21.696 82.25 21.6107 82.7406 21.44C83.242 21.2587 83.6633 21.0187 84.0046 20.72C84.3566 20.4213 84.6233 20.0747 84.8046 19.68C84.9966 19.2747 85.0926 18.8427 85.0926 18.384C85.0926 17.936 84.9966 17.5093 84.8046 17.104C84.6126 16.6987 84.3406 16.3467 83.9886 16.048C83.6473 15.7387 83.226 15.4987 82.7246 15.328C82.234 15.1467 81.6846 15.056 81.0766 15.056C80.4686 15.056 79.914 15.1467 79.4126 15.328C78.922 15.4987 78.5006 15.7387 78.1486 16.048C77.8073 16.3467 77.5406 16.6987 77.3486 17.104C77.1566 17.5093 77.0606 17.936 77.0606 18.384ZM92.4549 20.368L92.6789 20.56C92.8602 20.7307 93.0949 20.8907 93.3829 21.04C93.6815 21.1787 94.0015 21.3013 94.3429 21.408C94.6842 21.504 95.0309 21.5787 95.3829 21.632C95.7455 21.6853 96.0762 21.712 96.3749 21.712C96.7162 21.712 97.0842 21.7013 97.4789 21.68C97.8735 21.6587 98.2469 21.6053 98.5989 21.52C98.9402 21.4347 99.2069 21.3173 99.3989 21.168C99.6015 21.008 99.7029 20.7893 99.7029 20.512C99.7029 20.3307 99.6175 20.1867 99.4469 20.08C99.2762 19.9733 98.9882 19.888 98.5829 19.824C98.1669 19.76 97.6922 19.7227 97.1589 19.712C96.6362 19.6907 96.0922 19.6587 95.5269 19.616C94.9722 19.5627 94.4122 19.4827 93.8469 19.376C93.2815 19.2693 92.7749 19.0933 92.3269 18.848C91.8789 18.6027 91.5109 18.272 91.2229 17.856C90.9455 17.44 90.8069 16.896 90.8069 16.224C90.8069 15.5733 90.9615 15.0187 91.2709 14.56C91.5909 14.1013 92.0122 13.728 92.5349 13.44C93.0575 13.1413 93.6602 12.928 94.3429 12.8C95.0255 12.6613 95.7402 12.592 96.4869 12.592C97.0095 12.592 97.5482 12.6507 98.1029 12.768C98.6575 12.8747 99.1962 13.024 99.7189 13.216C100.252 13.408 100.754 13.6267 101.223 13.872C101.692 14.1173 102.103 14.3733 102.455 14.64L102.679 14.832L100.391 16.432L100.183 16.208C100.002 16.0267 99.7615 15.8667 99.4629 15.728C99.1749 15.5893 98.8602 15.472 98.5189 15.376C98.1882 15.28 97.8415 15.2107 97.4789 15.168C97.1269 15.1147 96.7962 15.088 96.4869 15.088C96.1455 15.088 95.8042 15.104 95.4629 15.136C95.1215 15.1573 94.8122 15.2107 94.5349 15.296C94.2789 15.3707 94.0709 15.488 93.9109 15.648C93.7615 15.7973 93.6869 16.0107 93.6869 16.288C93.6869 16.5013 93.7775 16.672 93.9589 16.8C94.1402 16.9173 94.4282 17.0133 94.8229 17.088C95.2389 17.1733 95.7082 17.2267 96.2309 17.248C96.7642 17.2693 97.3082 17.3013 97.8629 17.344C98.4175 17.3867 98.9722 17.4613 99.5269 17.568C100.092 17.664 100.599 17.8293 101.047 18.064C101.506 18.2987 101.874 18.6187 102.151 19.024C102.439 19.4187 102.583 19.936 102.583 20.576C102.583 21.28 102.402 21.8667 102.039 22.336C101.676 22.8053 101.202 23.1787 100.615 23.456C100.028 23.7333 99.3615 23.9253 98.6149 24.032C97.8789 24.1493 97.1322 24.208 96.3749 24.208C95.8629 24.208 95.3242 24.1493 94.7589 24.032C94.2042 23.9253 93.6602 23.776 93.1269 23.584C92.6042 23.392 92.1082 23.1733 91.6389 22.928C91.1695 22.6827 90.7589 22.4267 90.4069 22.16L90.1669 22L92.4549 20.368ZM104.933 12.784H115.765V15.28H107.637V17.136H115.093V19.632H107.637V21.504H115.765V23.984H104.933V12.784ZM118.026 12.784H125.45C126.965 12.784 128.117 13.104 128.906 13.744C129.696 14.384 130.09 15.264 130.09 16.384C130.09 16.8747 130.026 17.3333 129.898 17.76C129.77 18.1867 129.557 18.5653 129.258 18.896C128.97 19.216 128.592 19.4773 128.122 19.68C127.664 19.8827 127.098 20.0107 126.426 20.064L130.858 23.984H126.97L122.57 20.064H120.73V23.984H118.026V12.784ZM125.802 17.584C126.4 17.584 126.8 17.4987 127.002 17.328C127.216 17.1467 127.322 16.8267 127.322 16.368C127.322 15.984 127.157 15.7067 126.826 15.536C126.496 15.3653 126.064 15.28 125.53 15.28H120.73V17.584H125.802Z" fill="black"/>
<rect width="40" height="40" rx="12" fill="black"/>
<path d="M12 12H16.2948V21.5686L25.5959 12H31.263L22.9022 20.5971L32 29H26.0534L20.1067 23.4871L14.7192 29H12V12Z" fill="white"/>
</svg>
